PathFileType	4	(X/Y/Z)	C:/Users/opensim2020/Desktop/walking_exp_matlab/subject03_walking04_straight_03.trc																																																																																																																																																							
DataRate	CameraRate	NumFrames	NumMarkers	Units	OrigDataRate	OrigDataStartFrame	OrigNumFrames																																																																																																																																																			
100	100	4	51	mm	100	2277	256																																																																																																																																																			
Frame#	Time	LFHD			RFHD			LBHD			RBHD			C7			T10			CLAV			STRN			RBAK			LSHO			LUPA			LELB			LFRM			LWRA			LWRB			LFIN			RSHO			RUPA			RELB			RFRM			RWRA			RWRB			RFIN			LASI			RASI			LPSI			RPSI			LTHI			LKNE			LTIB			LANK			LHEE			LTOE			RTHI			RKNE			RTIB			RANK			RHEE			RTOE			*39			*40			*41			*42			*43			*44			*45			*46			*47			*48			*49			*50		
		X1	Y1	Z1	X2	Y2	Z2	X3	Y3	Z3	X4	Y4	Z4	X5	Y5	Z5	X6	Y6	Z6	X7	Y7	Z7	X8	Y8	Z8	X9	Y9	Z9	X10	Y10	Z10	X11	Y11	Z11	X12	Y12	Z12	X13	Y13	Z13	X14	Y14	Z14	X15	Y15	Z15	X16	Y16	Z16	X17	Y17	Z17	X18	Y18	Z18	X19	Y19	Z19	X20	Y20	Z20	X21	Y21	Z21	X22	Y22	Z22	X23	Y23	Z23	X24	Y24	Z24	X25	Y25	Z25	X26	Y26	Z26	X27	Y27	Z27	X28	Y28	Z28	X29	Y29	Z29	X30	Y30	Z30	X31	Y31	Z31	X32	Y32	Z32	X33	Y33	Z33	X34	Y34	Z34	X35	Y35	Z35	X36	Y36	Z36	X37	Y37	Z37	X38	Y38	Z38	X39	Y39	Z39	X40	Y40	Z40	X41	Y41	Z41	X42	Y42	Z42	X43	Y43	Z43	X44	Y44	Z44	X45	Y45	Z45	X46	Y46	Z46	X47	Y47	Z47	X48	Y48	Z48	X49	Y49	Z49	X50	Y50	Z50	X51	Y51	Z51
																																																																																																																																																										
33	0.32	-881.15137	1620.46924	-1217.74097	-901.33765	1617.96924	-1085.27454	-1000.41962	1558.97681	-1234.89709	-1016.54974	1556.74939	-1103.89087	-1028.87231	1410.41394	-1181.14465	-1072.09009	1099.495	-1188.89343	-908.44159	1331.22339	-1173.94958	-868.69965	1165.12231	-1185.23596	-1092.99866	1235.27759	-1094.63062	-942.04016	1375.95435	-1331.08948	-931.62134	1181.77234	-1401.30383	-904.71698	1060.95203	-1408.7052	-844.64758	945.38043	-1401.23999	-789.81525	842.66357	-1363.51404	-815.5141	835.03564	-1412.51501	-769.90485	765.58911	-1398.3728	-963.62506	1350.33569	-1016.95276	-977.28888	1124.03687	-957.03528	-968.92047	1010.75812	-948.69379	-972.21832	873.63947	-947.12616	-958.34192	773.95459	-983.33063	-987.2807	774.4668	-937.08429	-982.11536	698.87842	-950.87494	-909.44818	925.05487	-1304.672	-904.28839	935.47931	-1066.84314	-1069.58008	955.89545	-1251.06213	-1066.4696	965.90948	-1102.83459	-1013.9538	629.82892	-1348.31616	-1049.77686	452.49481	-1326.23022	-1199.77197	313.3306	-1316.90295	-1327.24951	150.87614	-1271.02112	-1371.72131	151.26147	-1230.6416	-1240.74719	24.10126	-1243.73022	-921.90759	641.42865	-1030.74756	-874.69824	468.90094	-1074.32898	-885.43561	278.65778	-1073.66687	-867.74927	64.791	-1127.52686	-908.96606	32.82806	-1181.08618	-724.16913	31.96984	-1141.51819	NaN	NaN	NaN	NaN	NaN	NaN	NaN	NaN	NaN	NaN	NaN	NaN	NaN	NaN	NaN	NaN	NaN	NaN	NaN	NaN	NaN	NaN	NaN	NaN	NaN	NaN	NaN	NaN	NaN	NaN	NaN	NaN	NaN	NaN	NaN	NaN
34	0.33	-872.3725	1622.03931	-1217.40491	-892.25848	1619.18445	-1084.88953	-991.94507	1561.18396	-1234.51831	-1007.90479	1558.65063	-1103.45276	-1020.25153	1411.43213	-1180.57166	-1062.05151	1100.57458	-1188.02966	-899.33118	1333.0072	-1173.84937	-858.7572	1167.02783	-1185.29456	-1082.87781	1236.71362	-1093.31714	-933.62451	1377.9176	-1330.53223	-923.66595	1183.84583	-1401.14966	-898.51215	1062.43591	-1408.57739	-840.47394	945.97754	-1402.02588	-787.49536	841.73035	-1365.19653	-813.5946	835.03625	-1414.21069	-769.89667	763.95367	-1400.20007	-953.74799	1352.53833	-1016.67224	-965.86682	1126.32629	-956.16931	-956.68182	1013.1861	-947.72168	-959.19763	876.05591	-945.80505	-945.16028	776.28381	-981.81311	-973.75586	776.8045	-935.38678	-968.36163	701.1004	-949.32867	-899.16974	926.66644	-1303.58765	-894.36462	937.17493	-1065.94836	-1059.13318	957.48346	-1250.33057	-1056.00647	967.6861	-1102.13281	-999.93036	629.76996	-1349.40576	-1032.80957	450.86807	-1328.09692	-1184.17163	315.33926	-1318.67065	-1315.3855	156.66862	-1272.72424	-1358.97668	160.68047	-1230.75928	-1238.96838	24.46566	-1243.32581	-915.18951	642.34875	-1031.28784	-870.07751	469.1113	-1073.26379	-882.25171	278.92209	-1072.95581	-867.59277	64.77533	-1127.4364	-908.9881	32.87142	-1180.88843	-724.04883	31.83059	-1141.58215	NaN	NaN	NaN	NaN	NaN	NaN	NaN	NaN	NaN	NaN	NaN	NaN	NaN	NaN	NaN	NaN	NaN	NaN	NaN	NaN	NaN	NaN	NaN	NaN	NaN	NaN	NaN	NaN	NaN	NaN	NaN	NaN	NaN	NaN	NaN	NaN
35	0.34	-863.63239	1623.29321	-1217.11267	-883.29669	1620.33484	-1084.20068	-983.56036	1563.18848	-1234.16443	-999.1048	1560.13831	-1103.09619	-1011.59705	1412.32019	-1180.06641	-1052.33521	1101.6178	-1186.96362	-890.2276	1334.49634	-1173.79077	-849.05627	1168.66882	-1184.87195	-1072.70715	1237.9519	-1091.85132	-925.12805	1379.30005	-1329.71887	-915.75623	1185.54102	-1400.94421	-892.13245	1063.77246	-1408.71252	-836.16718	946.27429	-1403.03528	-785.11389	840.54169	-1367.03186	-811.52264	834.84229	-1416.09912	-769.97284	762.06897	-1402.14636	-943.74615	1354.45874	-1016.56573	-954.59595	1128.48767	-955.03882	-944.66864	1015.41382	-946.37689	-945.88232	878.25555	-944.35242	-931.25177	778.45697	-980.3587	-959.60376	778.94861	-933.68604	-954.0567	703.02191	-947.52338	-889.16193	928.047	-1302.48962	-884.11444	938.34039	-1065.12122	-1048.85815	958.78845	-1249.37305	-1045.50281	969.16223	-1101.21875	-985.66803	629.44617	-1350.44031	-1013.86542	450.47821	-1330.58618	-1167.67273	316.87125	-1320.12708	-1303.73584	160.88791	-1274.60779	-1345.7926	170.03773	-1233.51575	-1237.01733	25.06098	-1243.5675	-908.38556	643.02203	-1030.66125	-865.4162	468.94547	-1072.47083	-879.33893	279.07562	-1072.74731	-867.56409	64.8553	-1127.78027	-908.99432	32.88962	-1180.93896	-723.90845	31.72131	-1141.76038	-956.79736	1672.46631	-1182.34937	NaN	NaN	NaN	NaN	NaN	NaN	NaN	NaN	NaN	NaN	NaN	NaN	NaN	NaN	NaN	NaN	NaN	NaN	NaN	NaN	NaN	NaN	NaN	NaN	NaN	NaN	NaN	NaN	NaN	NaN	NaN	NaN	NaN
36	0.35	-854.99707	1624.23206	-1216.84045	-874.26727	1620.93884	-1084.00623	-975.24719	1564.90076	-1233.93506	-990.49359	1561.50378	-1102.83215	-1002.86798	1412.90247	-1179.53076	-1042.67773	1102.12659	-1185.59631	-881.2218	1335.61951	-1173.76746	-839.42749	1170.02734	-1184.60608	-1062.57971	1238.92334	-1090.25122	-916.8363	1380.43298	-1329.14258	-907.79492	1186.76697	-1400.8219	-885.69006	1064.85828	-1408.99426	-831.69543	946.34686	-1404.29883	-782.60449	839.2558	-1369.12854	-809.31171	834.42993	-1418.14404	-770.05646	759.93073	-1404.22913	-933.78259	1356.05713	-1016.50446	-943.40942	1130.34314	-953.75299	-932.68945	1017.34216	-944.8382	-932.44501	880.27203	-942.78302	-916.79413	780.48724	-978.89899	-945.08417	780.78406	-931.98944	-939.36615	704.91071	-945.58807	-879.47272	929.06586	-1301.3927	-874.39459	938.77179	-1064.52673	-1039.29639	959.89801	-1248.4043	-1035.1759	970.32422	-1100.12097	-971.46216	628.72937	-1351.1626	-995.26611	449.18103	-1332.08289	-1150.10132	318.19418	-1321.79736	-1290.92883	164.56213	-1276.21545	-1331.9845	179.30685	-1236.6333	-1232.70288	27.7419	-1244.03442	-902.20355	643.37201	-1030.38049	-860.63422	468.5386	-1071.94763	-876.65826	279.01495	-1072.65002	-867.57062	64.90035	-1128.08276	-909.00415	32.86733	-1181.12317	-723.74854	31.60327	-1141.9895	NaN	NaN	NaN	NaN	NaN	NaN	NaN	NaN	NaN	NaN	NaN	NaN	NaN	NaN	NaN	NaN	NaN	NaN	NaN	NaN	NaN	NaN	NaN	NaN	NaN	NaN	NaN	NaN	NaN	NaN	NaN	NaN	NaN	NaN	NaN	NaN
